<svg xmlns="http://www.w3.org/2000/svg" width="18" height="18" viewBox="0 0 18 18"><defs><style>.a{fill:none;}.b,.c{fill:#5b92ff;}.c{opacity:0.3;}</style></defs><path class="a" d="M0,0H18V18H0Z"/><path class="b" d="M15.035,1H7.506a1.5,1.5,0,0,0-1.5,1.5H13.53a1.507,1.507,0,0,1,1.5,1.5V13.76l1.5.751V2.5A1.507,1.507,0,0,0,15.035,1ZM12.026,4H4.5A1.507,1.507,0,0,0,3,5.5V17.513l5.265-2.252,5.265,2.252V5.5A1.507,1.507,0,0,0,12.026,4Zm0,11.236L8.859,13.88l-.594-.255-.594.255L4.5,15.239V5.5h7.522Z" transform="translate(-0.77 -0.257)"/><path class="c" d="M5,16.643l3.717-1.6,3.717,1.6V7H5Z" transform="translate(-1.227 -1.696)"/></svg>